<svg width="63" height="15" viewBox="0 0 63 15" fill="none" xmlns="http://www.w3.org/2000/svg">
<path d="M62.064 5.936C62.384 6.128 62.496 6.368 62.4 6.656C62.304 6.912 62.144 7.072 61.92 7.136C61.696 7.2 61.376 7.2 60.96 7.136C60.576 7.072 60.288 7.024 60.096 6.992C60.096 6.992 60.064 6.976 60 6.944C59.776 6.912 59.504 6.864 59.184 6.8C58.896 6.736 58.592 6.672 58.272 6.608C57.472 6.448 56.672 6.304 55.872 6.176C55.072 6.016 54.272 5.872 53.472 5.744C53.056 5.68 52.736 5.744 52.512 5.936C52.352 6.032 52.176 6.112 51.984 6.176C51.792 6.24 51.568 6.24 51.312 6.176C49.52 5.888 47.744 5.648 45.984 5.456C44.224 5.264 42.432 5.088 40.608 4.928C40.16 4.864 39.728 4.832 39.312 4.832C38.896 4.8 38.464 4.768 38.016 4.736C37.952 4.736 37.872 4.736 37.776 4.736C37.68 4.704 37.616 4.72 37.584 4.784C37.424 4.944 37.232 5.024 37.008 5.024C36.816 4.992 36.624 4.976 36.432 4.976C34.544 4.816 32.688 4.72 30.864 4.688C30.416 4.656 29.952 4.656 29.472 4.688C28.992 4.688 28.528 4.688 28.08 4.688C27.408 4.656 26.736 4.64 26.064 4.64C25.392 4.64 24.72 4.64 24.048 4.64C23.6 4.608 23.152 4.576 22.704 4.544C22.256 4.512 21.808 4.48 21.36 4.448C21.104 4.416 20.864 4.416 20.64 4.448C20.416 4.448 20.176 4.448 19.92 4.448C19.728 4.48 19.536 4.512 19.344 4.544C19.152 4.576 18.96 4.592 18.768 4.592C18.096 4.624 17.424 4.656 16.752 4.688C16.08 4.72 15.408 4.768 14.736 4.832C14.064 4.896 13.392 4.992 12.72 5.12C12.112 5.216 11.52 5.328 10.944 5.456C10.368 5.584 9.808 5.744 9.264 5.936C8.976 6 8.704 6.096 8.448 6.224C8.192 6.32 7.936 6.416 7.68 6.512C7.552 6.576 7.424 6.64 7.296 6.704C7.2 6.768 7.104 6.832 7.008 6.896C6.912 6.96 6.8 7.04 6.672 7.136C6.576 7.2 6.496 7.264 6.432 7.328C6.208 7.456 6.016 7.632 5.856 7.856C5.76 7.952 5.664 8.048 5.568 8.144C5.504 8.24 5.44 8.32 5.376 8.384C5.312 8.48 5.232 8.576 5.136 8.672C5.04 8.768 4.96 8.88 4.896 9.008C4.704 9.264 4.56 9.536 4.464 9.824C4.464 9.824 4.432 9.84 4.368 9.872C4.336 9.968 4.32 10.16 4.32 10.448C4.352 10.736 4.352 11.024 4.32 11.312C4.32 11.632 4.352 11.904 4.416 12.128C4.48 12.352 4.512 12.624 4.512 12.944C4.544 13.264 4.576 13.504 4.608 13.664C4.64 13.824 4.656 14.016 4.656 14.24C4.656 14.464 4.544 14.608 4.32 14.672C4.128 14.736 3.888 14.72 3.6 14.624C3.312 14.528 3.024 14.368 2.736 14.144C2.576 14.016 2.416 13.888 2.256 13.76C2.128 13.664 2.016 13.536 1.92 13.376C1.696 13.024 1.52 12.64 1.392 12.224C1.264 11.808 1.168 11.376 1.104 10.928C1.008 10.384 0.976 9.872 1.008 9.392C1.008 8.944 1.088 8.4 1.248 7.76C1.376 7.312 1.6 6.816 1.92 6.272C2.144 5.824 2.448 5.408 2.832 5.024C3.6 4.192 4.4 3.552 5.232 3.104C5.872 2.752 6.512 2.464 7.152 2.24C7.824 2.016 8.48 1.824 9.12 1.664C9.76 1.504 10.384 1.376 10.992 1.28C11.632 1.152 12.272 1.04 12.912 0.944C13.168 0.912 13.424 0.864 13.68 0.8C13.936 0.736 14.192 0.687999 14.448 0.655999C14.928 0.592 15.408 0.56 15.888 0.56C16.368 0.56 16.848 0.528 17.328 0.464C18.448 0.4 19.552 0.352 20.64 0.319999C21.76 0.287999 22.88 0.352 24 0.512C25.12 0.64 26.256 0.736 27.408 0.8C28.56 0.832 29.696 0.896 30.816 0.991999C31.552 1.056 32.272 1.136 32.976 1.232C33.68 1.328 34.384 1.424 35.088 1.52C35.408 1.584 35.712 1.648 36 1.712C36.32 1.744 36.64 1.776 36.96 1.808C38.976 1.968 40.992 2.192 43.008 2.48C45.024 2.768 47.04 3.04 49.056 3.296C49.824 3.392 50.576 3.504 51.312 3.632C52.08 3.76 52.848 3.888 53.616 4.016C54.384 4.176 55.136 4.336 55.872 4.496C56.64 4.624 57.424 4.768 58.224 4.928C58.736 5.056 59.248 5.168 59.76 5.264C60.272 5.36 60.8 5.472 61.344 5.6C61.6 5.664 61.824 5.76 62.016 5.888C62.016 5.888 62.032 5.904 62.064 5.936ZM29.376 3.68C29.696 3.936 29.984 4.032 30.24 3.968C30.528 3.872 30.8 3.792 31.056 3.728C30.8 3.632 30.528 3.584 30.24 3.584C29.984 3.584 29.696 3.616 29.376 3.68ZM53.04 5.408C53.488 5.536 53.776 5.424 53.904 5.072C53.808 5.04 53.712 5.008 53.616 4.976C53.52 4.944 53.408 4.912 53.28 4.88C52.064 4.688 50.832 4.512 49.584 4.352C48.368 4.16 47.152 3.984 45.936 3.824C45.072 3.728 44.208 3.632 43.344 3.536C42.512 3.44 41.664 3.36 40.8 3.296C39.616 3.168 38.432 3.056 37.248 2.96C36.064 2.864 34.88 2.784 33.696 2.72C31.84 2.624 30 2.528 28.176 2.432C26.352 2.304 24.528 2.208 22.704 2.144H21.6C21.44 2.176 21.296 2.224 21.168 2.288C21.072 2.32 21.008 2.432 20.976 2.624C21.456 2.784 21.92 2.864 22.368 2.864C22.848 2.832 23.312 2.832 23.76 2.864C24.208 2.928 24.672 2.96 25.152 2.96C25.632 2.96 26.112 2.976 26.592 3.008C27.36 3.072 28.128 3.136 28.896 3.2C29.664 3.232 30.448 3.28 31.248 3.344C31.536 3.376 31.824 3.408 32.112 3.44C32.4 3.472 32.688 3.504 32.976 3.536C33.552 3.632 34.128 3.68 34.704 3.68C34.96 3.68 35.168 3.696 35.328 3.728C35.52 3.728 35.664 3.792 35.76 3.92C36.016 3.92 36.256 3.904 36.48 3.872C36.704 3.84 36.928 3.824 37.152 3.824C37.984 3.888 38.816 3.952 39.648 4.016C40.48 4.08 41.312 4.144 42.144 4.208C43.04 4.304 43.936 4.4 44.832 4.496C45.728 4.592 46.624 4.688 47.52 4.784C48.448 4.88 49.36 4.976 50.256 5.072C51.184 5.168 52.112 5.28 53.04 5.408ZM57.696 5.888C57.728 5.888 57.76 5.888 57.792 5.888C57.824 5.888 57.92 5.872 58.08 5.84C57.44 5.68 56.832 5.536 56.256 5.408C55.712 5.28 55.12 5.152 54.48 5.024C54.544 5.152 54.576 5.28 54.576 5.408C54.576 5.504 54.608 5.568 54.672 5.6C54.832 5.664 55.008 5.728 55.2 5.792C55.392 5.856 55.536 5.856 55.632 5.792C55.984 5.632 56.32 5.6 56.64 5.696C56.992 5.76 57.344 5.824 57.696 5.888Z" fill="currentColor"/>
</svg>
