<svg viewBox="0 0 14 14" fill="none" xmlns="http://www.w3.org/2000/svg">
<path id="Vector" d="M6.96801 1.06397H2.492C1.66799 1.06397 1 1.73197 1 2.55597V11.508C1 12.332 1.66799 13 2.492 13H11.444C12.2681 13 12.936 12.332 12.936 11.508V7.032M11.753 4.35697L12.563 3.547C13.1457 2.96434 13.1457 2.01965 12.563 1.437C11.9803 0.854333 11.0357 0.854333 10.453 1.437L9.64303 2.24697M11.753 4.35697L7.24993 8.86007C7.04165 9.06835 6.77637 9.21039 6.48759 9.26813L4.29302 9.70701L4.73193 7.5125C4.7897 7.22365 4.93167 6.95837 5.13994 6.75008L9.64303 2.24697M11.753 4.35697L9.64303 2.24697" stroke="currentColor" stroke-linecap="round" stroke-linejoin="round"/>
</svg>
