<svg width="1188" height="137" viewBox="0 0 1188 137" fill="none" xmlns="http://www.w3.org/2000/svg">
<path d="M9.5 5C9.5 2.51472 7.48528 0.5 5 0.5C2.51472 0.5 0.5 2.51472 0.5 5H9.5ZM1178.5 5C1178.5 10.149 1175.5 15.8839 1168.13 22.1215C1160.79 28.3274 1149.71 34.5193 1135.01 40.5385C1105.65 52.5604 1062.89 63.4834 1009.72 72.6909C903.453 91.0933 756.472 102.5 594 102.5V111.5C756.824 111.5 904.343 100.073 1011.25 81.5589C1064.67 72.3081 1108.17 61.2518 1138.42 48.8675C1153.52 42.6836 1165.58 36.0657 1173.94 28.9916C1182.26 21.9493 1187.5 13.9343 1187.5 5H1178.5ZM594 102.5C431.528 102.5 284.547 91.0933 178.282 72.6909C125.113 63.4834 82.354 52.5604 52.9916 40.5385C38.2901 34.5193 27.2064 28.3274 19.8734 22.1215C12.5027 15.8839 9.5 10.149 9.5 5H0.5C0.5 13.9343 5.73803 21.9493 14.0594 28.9916C22.4184 36.0657 34.4779 42.6836 49.5815 48.8675C79.8291 61.2518 123.327 72.3081 176.746 81.5589C283.657 100.073 431.176 111.5 594 111.5V102.5Z" fill="url(#paint0_linear_102_7)"/>
<g filter="url(#filter0_d_102_7)">
<rect x="519" y="81" width="150" height="48" rx="24" fill="#55EA7F"/>
</g>
<path fill-rule="evenodd" clip-rule="evenodd" d="M602.642 98.6287C601.809 96.0791 599.562 94.1959 596.943 93.8537C596.762 93.8301 596.384 93.8077 596.102 93.804L595.591 93.7973V95.9255V98.0537L595.875 98.1721C596.213 98.3134 596.644 98.7459 596.814 99.1157C596.923 99.355 596.93 99.4523 596.955 101.24L596.981 103.114L599.991 103.128L603 103.142L602.974 101.492C602.945 99.7325 602.914 99.4633 602.642 98.6287ZM594.646 94.9831V94.3902V93.7973H594.125C593.838 93.7973 593.591 93.8168 593.576 93.8406C593.562 93.8644 593.797 94.1312 594.098 94.4335L594.646 94.9831ZM594.646 96.3056L593.532 95.1835C592.919 94.5662 592.392 94.0612 592.36 94.0612C592.233 94.0612 591.107 94.49 591.029 94.5681C590.983 94.6147 594.461 98.0731 594.554 98.0731C594.638 98.0731 594.646 97.997 594.646 97.1894V96.3056ZM593.717 98.6437L591.965 96.8803C591.002 95.9105 590.192 95.117 590.166 95.117C590.11 95.117 589.736 95.4176 589.383 95.7464L589.131 95.9816L591.167 98.0303C592.287 99.1572 593.221 100.079 593.242 100.079C593.264 100.079 593.282 99.9494 593.282 99.7908C593.282 99.4744 593.433 99.0077 593.607 98.7851L593.717 98.6437ZM593.285 101.481L590.936 99.1173C589.643 97.8171 588.565 96.7606 588.538 96.7695C588.471 96.792 587.934 97.6964 587.895 97.8525C587.867 97.9655 588.159 98.2779 590.434 100.565C592.579 102.722 593.026 103.147 593.13 103.132C593.256 103.114 593.256 103.114 593.27 102.298L593.285 101.481ZM596.053 101.881C596.073 99.4603 596.041 99.2858 595.526 99.0292C595.097 98.8156 594.611 98.9461 594.348 99.3452L594.2 99.5697L594.185 101.592C594.175 102.912 594.189 103.687 594.226 103.824C594.39 104.437 595.101 104.696 595.639 104.338C596.029 104.078 596.035 104.042 596.053 101.881ZM591.681 103.141L589.609 101.056C588.469 99.9089 587.522 98.9706 587.505 98.9706C587.462 98.9706 587.316 99.7408 587.27 100.204L587.234 100.566L588.513 101.854L589.792 103.141H590.737H591.681ZM588.402 103.102C588.402 103.081 588.149 102.808 587.839 102.495C587.529 102.182 587.27 101.927 587.262 101.927C587.254 101.927 587.248 102.2 587.248 102.534V103.141H587.825C588.143 103.141 588.402 103.123 588.402 103.102ZM602.801 112.68C602.953 112.092 602.957 111.464 602.973 108.261L602.974 108.011L602.995 104.038L599.962 104.039L596.929 104.039L596.786 104.347C596.235 105.54 594.707 105.81 593.8 104.875C593.664 104.735 593.503 104.495 593.436 104.331L593.315 104.038H590.282H587.248L587.248 107.826C587.248 111.92 587.256 112.06 587.538 113.04C588.23 115.442 590.264 117.327 592.757 117.878C593.271 117.991 593.427 117.999 595.066 118C596.981 118.001 597.24 117.975 598.109 117.699C600.265 117.014 601.937 115.352 602.642 113.196L602.66 113.14C602.717 112.964 602.763 112.823 602.801 112.68Z" fill="#2C6D3F"/>
<path d="M563 97.2573C563 94.9344 560.474 93.4928 558.474 94.6746L545.371 102.417C543.406 103.578 543.406 106.422 545.371 107.583L558.474 115.325C560.474 116.507 563 115.066 563 112.743L563 97.2573Z" fill="#2C6D3F"/>
<path d="M625 97.2573C625 94.9344 627.526 93.4928 629.526 94.6746L642.629 102.417C644.594 103.578 644.594 106.422 642.629 107.583L629.526 115.325C627.526 116.507 625 115.066 625 112.743L625 97.2573Z" fill="#2C6D3F"/>
<defs>
<filter id="filter0_d_102_7" x="515" y="81" width="158" height="56" filterUnits="userSpaceOnUse" color-interpolation-filters="sRGB">
<feFlood flood-opacity="0" result="BackgroundImageFix"/>
<feColorMatrix in="SourceAlpha" type="matrix" values="0 0 0 0 0 0 0 0 0 0 0 0 0 0 0 0 0 0 127 0" result="hardAlpha"/>
<feOffset dy="4"/>
<feGaussianBlur stdDeviation="2"/>
<feComposite in2="hardAlpha" operator="out"/>
<feColorMatrix type="matrix" values="0 0 0 0 0 0 0 0 0 0 0 0 0 0 0 0 0 0 0.25 0"/>
<feBlend mode="normal" in2="BackgroundImageFix" result="effect1_dropShadow_102_7"/>
<feBlend mode="normal" in="SourceGraphic" in2="effect1_dropShadow_102_7" result="shape"/>
</filter>
<linearGradient id="paint0_linear_102_7" x1="594" y1="5" x2="594" y2="107" gradientUnits="userSpaceOnUse">
<stop stop-color="#5BFF89" stop-opacity="0"/>
<stop offset="1" stop-color="#5BFF89"/>
</linearGradient>
</defs>
</svg>
