<svg viewBox="0 0 116 116" fill="currentColor" xmlns="http://www.w3.org/2000/svg">
<path id="Vector" d="M106.268 0H9.99285C4.59062 0 0 4.20578 0 9.60841V94.3742C0 98.7795 3.03168 102.562 7.05523 103.808C7.96599 104.09 8.99588 104.243 9.99285 104.243H12.9324V109.255C12.9324 112.428 15.6134 116 18.7853 116H26.3806C29.553 116 32.1351 112.428 32.1351 109.255V104.243H83.8649V109.255C83.8649 112.428 86.6763 116 89.8483 116H97.4435C100.616 116 103.068 112.428 103.068 109.255V104.243H106.269C107.26 104.243 108.155 104.091 109.062 103.812C113.093 102.57 116 98.7842 116 94.3738V9.60841C116 4.20578 111.67 0 106.268 0ZM38.7973 52.2525C38.7973 49.7687 39.2707 47.397 40.1242 45.2157L30.43 39.6187C28.9306 38.7526 28.4165 36.8351 29.2826 35.3357C30.1482 33.8363 32.0658 33.323 33.5652 34.1879L43.2609 39.8233C46.17 36.3617 50.1622 33.9367 54.8649 33.176V21.9459C54.8649 20.2146 56.2686 18.8108 58 18.8108C59.7314 18.8108 61.1351 20.2146 61.1351 21.9459V33.176C65.8378 33.9363 69.9605 36.3617 72.8699 39.8237L82.6633 34.1883C84.1639 33.3214 86.0967 33.8363 86.962 35.3357C87.8281 36.8351 87.3221 38.7526 85.8228 39.6183L76.1328 45.2153C76.986 47.3966 77.4617 49.7687 77.4617 52.2525C77.4617 54.5745 77.0526 56.8004 76.3021 58.8629L85.8306 64.3639C87.33 65.2296 87.8441 67.1472 86.9781 68.6465C86.3977 69.6521 85.3435 70.2145 84.2603 70.2145C83.7285 70.2145 83.1896 70.0789 82.6959 69.794L73.16 64.3259C70.2364 67.9764 66.2301 70.5429 61.1355 71.329V82.2973C61.1355 84.0287 59.7318 85.4324 58.0004 85.4324C56.269 85.4324 54.8653 84.0287 54.8653 82.2973V71.329C50.1626 70.5429 45.8949 67.9764 42.9713 64.3263L33.5326 69.7944C33.0388 70.0793 32.5161 70.2145 31.9843 70.2145C30.9003 70.2145 29.8551 69.6521 29.2743 68.6465C28.4082 67.1472 28.9263 65.2296 30.4257 64.3635L39.9561 58.8626C39.2057 56.8004 38.7973 54.5745 38.7973 52.2525Z"/>
</svg>
