<svg width="17" height="17" viewBox="0 0 17 17" fill="none" xmlns="http://www.w3.org/2000/svg">
<mask id="mask0_39_3747" style="mask-type:luminance" maskUnits="userSpaceOnUse" x="0" y="1" width="17" height="16">
<path d="M8.5002 6.02081C12.4122 6.02081 15.5835 5.06942 15.5835 3.89581C15.5835 2.72221 12.4122 1.77081 8.5002 1.77081C4.58819 1.77081 1.41687 2.72221 1.41687 3.89581C1.41687 5.06942 4.58819 6.02081 8.5002 6.02081Z" fill="white" stroke="white" stroke-width="1.41667" stroke-linecap="round" stroke-linejoin="round"/>
<path d="M3.81446 5.48956C2.34466 5.87915 1.41675 6.44865 1.41675 7.08331C1.41675 8.25702 4.58796 9.20831 8.50008 9.20831C12.4122 9.20831 15.5834 8.25702 15.5834 7.08331C15.5834 6.44865 14.6559 5.87915 13.1857 5.48956C11.9369 5.82 10.2964 6.02081 8.50008 6.02081C6.70375 6.02081 5.06325 5.82 3.81446 5.48956Z" fill="white" stroke="white" stroke-width="1.41667" stroke-linecap="round" stroke-linejoin="round"/>
<path d="M3.81446 8.67706C2.34466 9.06665 1.41675 9.63615 1.41675 10.2708C1.41675 11.4445 4.58796 12.3958 8.50008 12.3958C12.4122 12.3958 15.5834 11.4445 15.5834 10.2708C15.5834 9.63615 14.6559 9.06665 13.1857 8.67706C11.9369 9.0075 10.2964 9.20831 8.50008 9.20831C6.70375 9.20831 5.06325 9.0075 3.81446 8.67706Z" fill="white" stroke="white" stroke-width="1.41667" stroke-linecap="round" stroke-linejoin="round"/>
<path d="M3.81446 11.8646C2.34466 12.2541 1.41675 12.8236 1.41675 13.4583C1.41675 14.632 4.58796 15.5833 8.50008 15.5833C12.4122 15.5833 15.5834 14.632 15.5834 13.4583C15.5834 12.8236 14.6559 12.2541 13.1857 11.8646C11.9369 12.1954 10.2964 12.3958 8.50008 12.3958C6.70375 12.3958 5.06325 12.1954 3.81446 11.8646Z" fill="white" stroke="white" stroke-width="1.41667" stroke-linecap="round" stroke-linejoin="round"/>
</mask>
<g mask="url(#mask0_39_3747)">
<path d="M-0.00012207 0H16.9999V17H-0.00012207V0Z" fill="white" fill-opacity="0.3"/>
</g>
</svg>
