<svg width="16" height="16" viewBox="0 0 16 16" fill="none" xmlns="http://www.w3.org/2000/svg">
<path d="M7.33337 11.3333H8.66671V7.33331H7.33337V11.3333ZM8.00004 5.99998C8.18893 5.99998 8.34737 5.93598 8.47537 5.80798C8.60337 5.67998 8.66715 5.52176 8.66671 5.33331C8.66671 5.14442 8.60271 4.98598 8.47471 4.85798C8.34671 4.72998 8.18849 4.6662 8.00004 4.66665C7.81115 4.66665 7.65271 4.73065 7.52471 4.85865C7.39671 4.98665 7.33293 5.14487 7.33337 5.33331C7.33337 5.5222 7.39737 5.68065 7.52537 5.80865C7.65337 5.93665 7.8116 6.00042 8.00004 5.99998ZM8.00004 14.6666C7.07782 14.6666 6.21115 14.4915 5.40004 14.1413C4.58893 13.7911 3.88337 13.3162 3.28337 12.7166C2.68337 12.1166 2.20849 11.4111 1.85871 10.6C1.50893 9.78887 1.33382 8.9222 1.33337 7.99998C1.33337 7.07776 1.50849 6.21109 1.85871 5.39998C2.20893 4.58887 2.68382 3.88331 3.28337 3.28331C3.88337 2.68331 4.58893 2.20842 5.40004 1.85865C6.21115 1.50887 7.07782 1.33376 8.00004 1.33331C8.92226 1.33331 9.78893 1.50842 10.6 1.85865C11.4112 2.20887 12.1167 2.68376 12.7167 3.28331C13.3167 3.88331 13.7918 4.58887 14.142 5.39998C14.4923 6.21109 14.6672 7.07776 14.6667 7.99998C14.6667 8.9222 14.4916 9.78887 14.1414 10.6C13.7912 11.4111 13.3163 12.1166 12.7167 12.7166C12.1167 13.3166 11.4112 13.7918 10.6 14.142C9.78893 14.4922 8.92226 14.6671 8.00004 14.6666Z" fill="#68C9FF" fill-opacity="0.37"/>
</svg>
