<svg width="20" height="20" viewBox="0 0 20 20" fill="none" xmlns="http://www.w3.org/2000/svg">
<path d="M9.16663 14.1667H10.8333V9.16669H9.16663V14.1667ZM9.99996 7.50002C10.2361 7.50002 10.4341 7.42002 10.5941 7.26002C10.7541 7.10002 10.8338 6.90224 10.8333 6.66669C10.8333 6.43058 10.7533 6.23252 10.5933 6.07252C10.4333 5.91252 10.2355 5.8328 9.99996 5.83335C9.76385 5.83335 9.56579 5.91335 9.40579 6.07335C9.24579 6.23335 9.16607 6.43113 9.16663 6.66669C9.16663 6.9028 9.24663 7.10085 9.40663 7.26085C9.56663 7.42085 9.7644 7.50058 9.99996 7.50002ZM9.99996 18.3334C8.84718 18.3334 7.76385 18.1145 6.74996 17.6767C5.73607 17.2389 4.85413 16.6453 4.10413 15.8959C3.35413 15.1459 2.76051 14.2639 2.32329 13.25C1.88607 12.2361 1.66718 11.1528 1.66663 10C1.66663 8.84724 1.88551 7.76391 2.32329 6.75002C2.76107 5.73613 3.35468 4.85419 4.10413 4.10419C4.85413 3.35419 5.73607 2.76058 6.74996 2.32335C7.76385 1.88613 8.84718 1.66724 9.99996 1.66669C11.1527 1.66669 12.2361 1.88558 13.25 2.32335C14.2638 2.76113 15.1458 3.35474 15.8958 4.10419C16.6458 4.85419 17.2397 5.73613 17.6775 6.75002C18.1152 7.76391 18.3338 8.84724 18.3333 10C18.3333 11.1528 18.1144 12.2361 17.6766 13.25C17.2388 14.2639 16.6452 15.1459 15.8958 15.8959C15.1458 16.6459 14.2638 17.2397 13.25 17.6775C12.2361 18.1153 11.1527 18.3339 9.99996 18.3334Z" fill="white" fill-opacity="0.08"/>
</svg>
