<svg width="15" height="15" viewBox="0 0 15 15" fill="none" xmlns="http://www.w3.org/2000/svg">
<path d="M13.5938 3.75V11.25C13.5938 11.4986 13.495 11.7371 13.3192 11.9129C13.1434 12.0887 12.9049 12.1875 12.6563 12.1875H4.834L2.95431 13.8346C2.95205 13.837 2.94949 13.8392 2.9467 13.841C2.77836 13.984 2.56465 14.0625 2.34377 14.0625C2.20623 14.0623 2.07042 14.0319 1.94591 13.9734C1.78396 13.8988 1.64694 13.7791 1.55124 13.6286C1.45554 13.4782 1.40521 13.3033 1.40627 13.125V3.75C1.40627 3.50136 1.50504 3.2629 1.68085 3.08709C1.85667 2.91127 2.09513 2.8125 2.34377 2.8125H12.6563C12.9049 2.8125 13.1434 2.91127 13.3192 3.08709C13.495 3.2629 13.5938 3.50136 13.5938 3.75Z" fill="white" fill-opacity="0.55"/>
</svg>
