<svg width="10" height="11" viewBox="0 0 10 11" fill="none" xmlns="http://www.w3.org/2000/svg">
<g filter="url(#filter0_d_39_3464)">
<path fill-rule="evenodd" clip-rule="evenodd" d="M7.75744 4.94419C7.88271 4.92867 7.99668 4.86403 8.07428 4.76448C8.15189 4.66493 8.18677 4.53863 8.17125 4.41337C8.15573 4.2881 8.09109 4.17413 7.99154 4.09653C7.892 4.01892 7.7657 3.98404 7.64043 3.99956L4.49168 4.38959C4.36642 4.40511 4.25244 4.46975 4.17484 4.5693C4.09724 4.66885 4.06236 4.79514 4.07787 4.92041C4.09339 5.04567 4.15803 5.15965 4.25758 5.23725C4.35713 5.31485 4.48342 5.34973 4.60869 5.33422L7.75744 4.94419ZM6.67132 3.27366C6.71207 3.32109 6.76176 3.36004 6.81755 3.38827C6.87334 3.4165 6.93415 3.43346 6.9965 3.4382C7.05885 3.44293 7.12153 3.43533 7.18094 3.41584C7.24036 3.39635 7.29535 3.36535 7.34278 3.3246C7.39022 3.28386 7.42916 3.23417 7.45739 3.17838C7.48562 3.12258 7.50259 3.06178 7.50732 2.99942C7.51205 2.93707 7.50445 2.8744 7.48496 2.81499C7.46547 2.75557 7.43447 2.70058 7.39373 2.65314C7.03589 2.23585 6.58027 1.91366 6.06757 1.71536C5.55487 1.51706 5.00103 1.44881 4.45553 1.51671C2.62957 1.74289 1.33269 3.40647 1.55887 5.23243C1.78505 7.0584 3.44863 8.35527 5.27459 8.12909C6.42515 7.98657 7.36497 7.27327 7.84671 6.31011C7.90309 6.19713 7.91229 6.06639 7.87227 5.94663C7.83226 5.82688 7.74631 5.72793 7.63334 5.67155C7.52036 5.61516 7.38962 5.60597 7.26987 5.64598C7.15011 5.686 7.05116 5.77195 6.99478 5.88492C6.7667 6.34241 6.39737 6.71429 5.94146 6.9455C5.48555 7.17671 4.9673 7.25497 4.46345 7.16867C3.9596 7.08238 3.49693 6.83613 3.14394 6.46638C2.79096 6.09663 2.56642 5.62304 2.50358 5.11573C2.44074 4.60842 2.54294 4.09436 2.79504 3.64966C3.04714 3.20496 3.43574 2.85327 3.90331 2.64665C4.37088 2.44002 4.89256 2.38946 5.3911 2.50245C5.88965 2.61544 6.33852 2.88565 6.67132 3.27366Z" fill="url(#paint0_radial_39_3464)" shape-rendering="crispEdges"/>
</g>
<defs>
<filter id="filter0_d_39_3464" x="0.533203" y="1.49121" width="8.6416" height="8.66348" filterUnits="userSpaceOnUse" color-interpolation-filters="sRGB">
<feFlood flood-opacity="0" result="BackgroundImageFix"/>
<feColorMatrix in="SourceAlpha" type="matrix" values="0 0 0 0 0 0 0 0 0 0 0 0 0 0 0 0 0 0 127 0" result="hardAlpha"/>
<feOffset dy="1"/>
<feGaussianBlur stdDeviation="0.5"/>
<feComposite in2="hardAlpha" operator="out"/>
<feColorMatrix type="matrix" values="0 0 0 0 0 0 0 0 0 0 0 0 0 0 0 0 0 0 0.49 0"/>
<feBlend mode="normal" in2="BackgroundImageFix" result="effect1_dropShadow_39_3464"/>
<feBlend mode="normal" in="SourceGraphic" in2="effect1_dropShadow_39_3464" result="shape"/>
</filter>
<radialGradient id="paint0_radial_39_3464" cx="0" cy="0" r="1" gradientUnits="userSpaceOnUse" gradientTransform="translate(4.86506 4.8229) rotate(180) scale(9.55359)">
<stop stop-color="#707070"/>
<stop offset="1" stop-color="#707070" stop-opacity="0"/>
</radialGradient>
</defs>
</svg>
