<svg width="18" height="18" viewBox="0 0 18 18" fill="none" xmlns="http://www.w3.org/2000/svg">
<path d="M14.0777 9.51752C14.1071 9.29687 14.1218 9.06886 14.1218 8.82614C14.1218 8.59077 14.1071 8.35541 14.0703 8.13475L15.5634 6.97264C15.6278 6.91961 15.6717 6.84591 15.6878 6.7641C15.7039 6.68229 15.6912 6.59743 15.6517 6.52398L14.2395 4.08207C14.1979 4.0082 14.1316 3.95142 14.0521 3.92181C13.9727 3.89219 13.8854 3.89164 13.8056 3.92026L12.0477 4.62635C11.6799 4.34685 11.2901 4.11149 10.8561 3.93497L10.5914 2.06676C10.5783 1.98257 10.5355 1.90584 10.4708 1.8505C10.406 1.79517 10.3235 1.7649 10.2383 1.7652H7.41394C7.23742 1.7652 7.09767 1.89024 7.06825 2.06676L6.80346 3.93497C6.36951 4.11149 5.97233 4.35421 5.61193 4.62635L3.85405 3.92026C3.69224 3.86142 3.50836 3.92026 3.4201 4.08207L2.01526 6.52398C1.927 6.67844 1.95642 6.86967 2.10353 6.97264L3.59662 8.13475C3.55984 8.35541 3.53042 8.59813 3.53042 8.82614C3.53042 9.05415 3.54513 9.29687 3.58191 9.51752L2.08882 10.6796C2.02448 10.7327 1.98051 10.8064 1.96442 10.8882C1.94833 10.97 1.9611 11.0548 2.00055 11.1283L3.41274 13.5702C3.501 13.732 3.68488 13.7835 3.84669 13.732L5.60457 13.0259C5.97233 13.3054 6.36215 13.5408 6.79611 13.7173L7.06089 15.5855C7.09767 15.762 7.23742 15.8871 7.41394 15.8871H10.2383C10.4148 15.8871 10.5619 15.762 10.584 15.5855L10.8488 13.7173C11.2827 13.5408 11.6799 13.3054 12.0403 13.0259L13.7982 13.732C13.96 13.7909 14.1439 13.732 14.2322 13.5702L15.6443 11.1283C15.7326 10.9665 15.6958 10.7826 15.5561 10.6796L14.0777 9.51752ZM8.82613 11.474C7.36981 11.474 6.17828 10.2825 6.17828 8.82614C6.17828 7.36982 7.36981 6.17829 8.82613 6.17829C10.2824 6.17829 11.474 7.36982 11.474 8.82614C11.474 10.2825 10.2824 11.474 8.82613 11.474Z" fill="white" fill-opacity="0.3"/>
</svg>
