<svg width="16" height="16" viewBox="0 0 16 16" fill="none" xmlns="http://www.w3.org/2000/svg">
<g clip-path="url(#clip0_39_4281)">
<path d="M8.83998 2.20001C8.94432 2.12537 9.06641 2.07941 9.19407 2.06671C9.32173 2.05401 9.45048 2.07503 9.56748 2.12766C9.68447 2.18029 9.78562 2.26268 9.86081 2.36663C9.936 2.47057 9.98261 2.59242 9.99598 2.72001L9.99998 2.79601V13.204C10 13.3323 9.96641 13.4584 9.90249 13.5696C9.83858 13.6808 9.7466 13.7734 9.63574 13.8379C9.52489 13.9025 9.39903 13.9369 9.27074 13.9376C9.14245 13.9383 9.01622 13.9053 8.90465 13.842L8.84065 13.8007L4.45331 10.6667H2.66665C2.33026 10.6668 2.00627 10.5397 1.75961 10.311C1.51296 10.0823 1.36188 9.76878 1.33665 9.43334L1.33331 9.33334V6.66667C1.33321 6.33029 1.46025 6.0063 1.68898 5.75964C1.9177 5.51299 2.23121 5.3619 2.56665 5.33667L2.66665 5.33334H4.45331L8.83998 2.20001ZM13.1113 4.52201C13.6011 4.95931 13.9929 5.49525 14.261 6.09466C14.529 6.69407 14.6673 7.34339 14.6666 8.00001C14.6673 8.65662 14.529 9.30594 14.261 9.90535C13.9929 10.5048 13.6011 11.0407 13.1113 11.478C13.0462 11.5374 12.9701 11.5832 12.8872 11.613C12.8043 11.6427 12.7163 11.6557 12.6284 11.6513C12.5404 11.6468 12.4542 11.625 12.3747 11.587C12.2953 11.5491 12.2241 11.4958 12.1654 11.4301C12.1066 11.3645 12.0614 11.2879 12.0325 11.2048C12.0035 11.1216 11.9913 11.0335 11.9966 10.9456C12.0018 10.8577 12.0245 10.7717 12.0632 10.6926C12.1018 10.6135 12.1558 10.5428 12.222 10.4847C12.5721 10.1724 12.8521 9.78958 13.0437 9.36133C13.2352 8.93309 13.3339 8.46914 13.3333 8.00001C13.3333 7.01334 12.9053 6.12667 12.222 5.51534C12.1558 5.45721 12.1018 5.38654 12.0632 5.30743C12.0245 5.22831 12.0018 5.14232 11.9966 5.05441C11.9913 4.9665 12.0035 4.87841 12.0325 4.79525C12.0614 4.71208 12.1066 4.63548 12.1654 4.56986C12.2241 4.50425 12.2953 4.45093 12.3747 4.41297C12.4542 4.37502 12.5404 4.35318 12.6284 4.34873C12.7163 4.34428 12.8043 4.35731 12.8872 4.38705C12.9701 4.41679 13.0462 4.46266 13.1113 4.52201ZM11.778 6.01267C12.0577 6.2625 12.2815 6.56864 12.4347 6.91101C12.5878 7.25339 12.6669 7.62427 12.6666 7.99934C12.6671 8.37464 12.5882 8.74579 12.435 9.08842C12.2818 9.43104 12.0579 9.73739 11.778 9.98734C11.6516 10.0996 11.4872 10.1597 11.3182 10.1553C11.1491 10.151 10.9881 10.0826 10.8676 9.96394C10.7471 9.84532 10.6762 9.68534 10.6692 9.51639C10.6622 9.34745 10.7197 9.18217 10.83 9.05401L10.8886 8.99401C11.162 8.74867 11.3333 8.39467 11.3333 8.00001C11.3341 7.65861 11.2033 7.33005 10.968 7.08267L10.8886 7.00601C10.8225 6.94787 10.7685 6.87721 10.7298 6.79809C10.6911 6.71898 10.6685 6.63298 10.6632 6.54507C10.658 6.45716 10.6702 6.36908 10.6991 6.28591C10.7281 6.20275 10.7733 6.12614 10.832 6.06053C10.8908 5.99492 10.9619 5.94159 11.0414 5.90364C11.1209 5.86568 11.2071 5.84385 11.295 5.8394C11.383 5.83495 11.4709 5.84797 11.5538 5.87771C11.6367 5.90745 11.7129 5.95332 11.778 6.01267Z" fill="white" fill-opacity="0.55"/>
</g>
<defs>
<clipPath id="clip0_39_4281">
<rect width="16" height="16" fill="white"/>
</clipPath>
</defs>
</svg>
